<svg width="30" height="137" viewBox="0 0 30 137" fill="none" xmlns="http://www.w3.org/2000/svg">
<path d="M25.9414 42.4752L26.8745 40.1418C29.0617 36.7259 30 32.1282 30 27.0569C30 7.98494 28.8156 2.34512 24.1995 0.687394L23.6497 25.5086C23.6497 26.5624 22.8311 27.5851 21.6143 27.5851L20.8952 27.5851C19.6784 27.5851 18.8622 26.429 18.8622 25.3492L16.7148 1.16143e-06C16.1622 0.00235106 15.5974 0.00468571 15.0001 0.00235116C13.955 0.00235126 12.9895 0.00937038 12.0861 0.0283829L9.94357 25.7082C9.94847 26.6952 9.12989 27.5825 7.91304 27.5825L7.19395 27.5825C5.9771 27.5825 5.15853 26.4266 5.15853 25.3465L4.62586 1.27703C0.00489404 3.65082 -1.53085e-06 10.4015 1.36474e-07 29.4735C5.86057e-07 34.6161 0.957864 38.6979 3.21248 41.5379C3.95637 43.1005 4.84475 44.9584 5.79037 46.9161C6.43997 48.2601 7.10916 49.6396 7.77865 51.005C8.59234 52.6653 9.39346 54.2733 10.1377 55.7432L8.01744 133.579C8.01774 135.416 12.1036 137 14.0248 137L17.1874 137C19.1084 137 23.1942 135.273 23.1942 133.437L21.0467 54.7035L23.3757 48.8828L25.9414 42.4752ZM15.152 131.189C13.037 131.189 11.3224 129.55 11.3224 127.528C11.3224 125.506 13.037 123.867 15.152 123.867C17.267 123.867 18.9816 125.506 18.9816 127.528C18.9816 129.55 17.267 131.189 15.152 131.189Z" fill="#E23E57"/>
</svg>
