<svg width="35" height="135" viewBox="0 0 35 135" fill="none" xmlns="http://www.w3.org/2000/svg">
<path d="M35 27.6822C35 16.9059 28.4994 5.68301e-07 17.5 1.5299e-06C6.5006 2.4915e-06 1.11977e-06 16.9035 2.06207e-06 27.6822C2.84392e-06 36.6255 4.48928 44.1475 12.2999 46.4519L10.0204 132.056C10.0204 133.854 13.927 135 15.762 135L18.7839 135C20.6189 135 24.5252 133.854 24.5252 132.056L22.248 46.5725C30.3367 44.4292 35 36.7959 35 27.6822ZM17.5 129.214C15.4453 129.214 13.7795 127.582 13.7795 125.569C13.7795 123.556 15.4453 121.924 17.5 121.924C19.5548 121.924 21.2205 123.556 21.2205 125.569C21.2229 127.582 19.5548 129.214 17.5 129.214Z" fill="#E23E57"/>
</svg>
